<?xml version="1.0" encoding="UTF-8"?>
<svg xmlns="http://www.w3.org/2000/svg" viewBox="0 0 1200 560" width="100%" font-family="ui-sans-serif, -apple-system, BlinkMacSystemFont, 'Segoe UI', Inter, sans-serif" role="img" aria-label="ETL pipeline: Sources to Ingest to Raw to Transform to Warehouse, branching into Analytics and ML, orchestrated by Airflow / Cloud Composer"><g><path d="M57.43453876078129 136.62052167356015 L209.20170442163945 133.87413695752622 L208.06507674753666 250.9196803420782 L57.08979245722294 251.37170260846614" stroke="none" stroke-width="0" fill="#ffec99"></path><path d="M62.287836679816245 131.76437141001225 C90.77975041996687 134.50163244172933, 122.95665866695344 134.77891467973592, 208.8327340453863 134.50510484278203 M61.383486087620255 135.4569355174899 C96.56498630661517 133.00489600762725, 131.98174806125462 132.57865799531342, 209.3854125574231 134.4495593711734 M211.44599469602107 135.2099716335535 C212.53400674275161 181.98548602797092, 211.9050384085536 228.1879688061774, 208.87364047467707 247.49935313761233 M208.8391276910901 132.73277661055326 C209.6637288884163 175.7349141638726, 208.47788270273207 216.2266681112349, 210.7610324934125 249.7994895145297 M209.32930835187435 252.64345332682132 C153.07595277298242 255.9657132549584, 100.64958388842642 252.79967884257437, 60.3216361373663 249.29798680841924 M209.39569245129823 250.67031661719085 C158.19766652267427 248.9536197550595, 110.69671853594483 247.37584670856594, 60.52551503926516 250.73646036833526 M60.11736749112606 251.4461641460657 C63.03345662008524 207.53180781267582, 58.14262915502786 170.830552675575, 57.615685877203944 131.97297851145268 M60.636041696369645 251.56872545927763 C57.15255526649952 227.9249228525907, 56.45911325562 203.41985773369672, 61.357034023106095 135.38932935446502" stroke="#1e1e1e" stroke-width="1.8" fill="none"></path></g><g><path d="M126.51015500204153 120.81570488583282 C137.32770584991806 120.4336424485667, 151.35989683033944 121.86997550643989, 162.10945966876903 122.64429032138062 C172.85902250719863 123.41860513632136, 183.87080449039743 123.94397001894397, 191.0075320326192 125.46159377547725 C198.14425957484096 126.97921753201054, 203.84193790082352 129.57622906780438, 204.92982492209956 131.75003286058032 C206.0177119433756 133.92383665335626, 202.0884590115037 136.35029336680873, 197.53485416027544 138.50441653213295 C192.9812493090472 140.65853969745717, 186.24045389455853 143.45168445804407, 177.60819581473 144.6747718525256 C168.9759377349015 145.89785924700712, 157.31246814016365 145.8211955312671, 145.74130568130428 145.84294089902207 C134.17014322244492 145.86468626677703, 119.09368100998884 145.31928831023467, 108.18122106157388 144.80524405905533 C97.26876111315892 144.29119980787598, 87.0828902068237 144.1194262084158, 80.2665459908145 142.75867539194599 C73.45020177480531 141.39792457547617, 68.7573529827176 138.92734367831352, 67.2831557655187 136.64073916023648 C65.8089585483198 134.35413464215944, 67.07156884611778 130.95442188114026, 71.4213626876211 129.03904828348368 C75.77115652912441 127.12367468582711, 81.26544514713252 126.64057035806812, 93.38191881453861 125.14849757429707 C105.49839248194469 123.65642479052602, 132.96582406492507 120.63658353119165, 144.12020469205763 120.08661158085735 C155.27458531919018 119.53663963052306, 160.52451034673473 121.70576796986231, 160.308202577334 121.84866587229126 M97.71392334577347 123.81001416865195 C106.17473889626311 122.31228191882622, 117.67264487959915 119.90880891956402, 128.770558299412 119.93724784660442 C139.86847171922483 119.96568677364482, 154.05964515736872 123.15508789218181, 164.3014038646505 123.98064773089435 C174.54316257193227 124.80620756960688, 183.99422984399934 123.73507885623806, 190.22111054310255 124.89060687887965 C196.44799124220577 126.04613490152124, 200.6656110102512 128.3605121751781, 201.6626880592699 130.9138158667439 C202.65976510828858 133.46711955830972, 200.54951066732968 137.82787604641237, 196.20357283721458 140.21042902827458 C191.85763500709947 142.59298201013678, 184.73448903277125 144.14784069165435, 175.5870610785792 145.20913375791704 C166.43963312438717 146.27042682417974, 153.337743154983 146.13200839482232, 141.31900511206226 146.57818742585079 C129.3002670691415 147.02436645687925, 113.83293758699128 148.90656510793457, 103.47463282105473 147.88620794408774 C93.11632805511817 146.86585078024092, 85.25773877224785 142.4419960112489, 79.16917651644295 140.4560444427699 C73.08061426063804 138.47009287429088, 67.71531745249254 138.23731292882007, 66.94325928622534 135.97049853321374 C66.17120111995814 133.7036841376074, 69.86608442902 128.96301985073765, 74.53682751883971 126.85515806913182 C79.20757060865942 124.74729628752598, 90.91326560668476 123.5386455557848, 94.96771782514358 123.32332784357871 C99.0221700436024 123.10801013137262, 98.19517531713163 125.75186963076189, 98.86354082959261 125.56325179589531" stroke="none" stroke-width="0" fill="#ffec99"></path><path d="M174.88851408949455 124.52064095214158 C184.63075638473973 125.40302314689629, 193.69736940851539 125.81836190717246, 198.3720763001082 127.68934292692362 C203.04678319170102 129.56032394667477, 204.13519120086315 133.64047620741945, 202.93675543905147 135.7465270706485 C201.7383196772398 137.85257793387757, 197.76229028961527 138.57725722917553, 191.18146172923818 140.32564810629796 C184.6006331688611 142.0740389834204, 173.7945337455003 145.13850743465252, 163.45178407678893 146.23687233338313 C153.10903440807755 147.33523723211374, 140.63032540947933 147.20088472596618, 129.12496371696986 146.9158374986817 C117.61960202446039 146.63079027139722, 103.92986124690577 146.03964176817937, 94.41961392173214 144.5265889696762 C84.9093665965585 143.01353617117303, 76.8837904732354 139.88362341625665, 72.06347976592805 137.83752070766272 C67.24316905862071 135.79141799906878, 64.26502271225968 134.01865747721573, 65.49774967788807 132.24997271811264 C66.73047664351645 130.48128795900956, 72.67980073430668 128.79855850807198, 79.45984155969842 127.22541215304426 C86.23988238509016 125.65226579801654, 95.80691892698118 124.0501125882802, 106.17799463023846 122.81109458794639 C116.54907033349573 121.57207658761257, 128.4364609296248 119.40991585280996, 141.68629577924207 119.79130415104137 C154.93613062885936 120.17269244927279, 177.12490023986024 123.54057228020734, 185.67700372794224 125.09942437733486 C194.22910721602423 126.65827647446237, 193.7101599595709 128.79163402873212, 192.9989167077341 129.14441673380645 M104.01129321096249 120.88027924389664 C113.27459259919765 119.20114662936206, 126.44249914142318 118.80425703510812, 138.20591061347574 119.23546962207553 C149.9693220855283 119.66668220904293, 164.539954002103 122.26153611098758, 174.59176204327778 123.46755476570108 C184.64357008445256 124.67357342041458, 193.74180367814733 124.93425517635396, 198.51675886052433 126.47158155035655 C203.29171404290133 128.00890792435914, 204.23451507166135 129.90733608251765, 203.24149313753975 132.69151300971663 C202.24847120341815 135.47568993691561, 198.46044690682893 141.03334546955108, 192.55862725579473 143.17664311355037 C186.65680760476053 145.31994075754966, 177.77344569201296 144.8854104796144, 167.83057523133454 145.5512988737124 C157.88770477065611 146.2171872678104, 144.55747896579084 147.1389562906308, 132.90140449172412 147.17197347813848 C121.24533001765741 147.20499066564616, 107.91049274067007 147.25318428720004, 97.89412838693426 145.74940199875851 C87.87776403319845 144.245619710317, 78.12653723729422 140.15007410092304, 72.8032183693093 138.1492797474893 C67.4798995013244 136.14848539405554, 65.02402836605802 135.24294606798935, 65.95421517902481 133.7446358781561 C66.88440199199161 132.24632568832283, 72.00924021527757 131.2337257358265, 78.38433924711012 129.1594186084898 C84.75943827894267 127.0851114811531, 100.1367192731906 122.48786944838572, 104.20480937002007 121.29879311413589 C108.27289946684955 120.10971677988606, 102.27642866905644 121.36349125408847, 102.792879828087 122.0249606029908" stroke="#1e1e1e" stroke-width="1.8" fill="none"></path></g><g><path d="M60 236 C62.03050757348538 245.40828473738313, 123.34880257546902 253.26207863033963, 169.30187016427516 245.5990553796829 M58.593962201476096 237.14942745268345 C62.02466521814466 245.9519500855255, 118.93882275655865 252.08624000833584, 175.2744537551701 251.2215714692117 M172.5 248.12435565298213 C194.7863065425008 247.47339385164415, 207.19392081201076 238.35323483035523, 208.6155125707388 234.20730213224888 M173.9564296811819 247.44149598484648 C199.2575366406589 245.58146204230817, 212.31355235651137 237.84751941830476, 207.33310333803297 235.99123018905522" stroke="#1e1e1e" stroke-width="1.8" fill="none"></path></g><text x="135" y="177" text-anchor="middle" font-size="24" font-weight="700" fill="#1e1e1e">Sources</text><text x="135" y="207" text-anchor="middle" font-size="15" font-weight="500" fill="#6b6b6b">APIs · DBs · Events</text><g><path d="M213.63243032693862 187.0443116545677 C223.37192366681992 187.97592663973572, 231.08413429185748 184.98916707247497, 257.00497099161146 187.9547360777855 M215.0427019774914 185.4671554863453 C224.8791840378195 184.20699288707974, 236.5979597993195 185.17746922832728, 259.0280228316784 185.09010794758797" stroke="#1e1e1e" stroke-width="1.8" fill="none"></path></g><g><path d="M261.4032504707575 183.70347393453122 L247.83459706512463 190.65818403023243 L247.48488803115856 177.07684144121646" stroke="none" stroke-width="0" fill="#1e1e1e" fill-rule="evenodd"></path><path d="M259.043646658957 182.7878745135665 C256.61412053783766 185.1368600117272, 255.6725998936795 188.20060982773873, 245.24600089607011 188.21250760006666 M260.54435336872933 184.0414619345963 C254.8783519845893 186.66778823676455, 250.44867705010125 189.16368172571356, 247.21378488493335 190.15343401703 M247.9866070426206 190.37459556393782 C248.22412864062042 188.11042299633849, 247.20630769252907 184.3369903113988, 248.02780524791788 180.61578521120109 M246.87287836823282 190.1097484766997 C247.14694620690622 188.0210296317826, 246.86757837622017 185.62845697277223, 247.59945357112082 179.83676142377703 M247.3210240226723 178.23728780043365 C249.47839974636503 179.713844109473, 250.98216629369196 182.26619571328064, 261.7744475451112 186.23745006173849 M247.43508397531878 180.34526199934126 C250.98375127159855 181.17182021210093, 255.42950408830364 183.59691110861425, 259.27383947655557 184.0253728146851" stroke="#1e1e1e" stroke-width="1.2" fill="none"></path></g><g><path d="M268.1851057112217 121.03778638243675 L427.1864666044712 120.52946442961692 L427.5774820387363 251.63549184203148 L267.8267067015171 249.9591889321804" stroke="none" stroke-width="0" fill="#b2f2bb"></path><path d="M264.5486454904079 118.26646748185158 C297.67339527606964 124.73060089039802, 330.9572209894657 120.25046153950692, 422.1074564874172 122.83210411667824 M264.26405296623705 121.50073322951793 C303.78280293643473 119.2314955843687, 341.3249934583902 120.68721009624004, 424.3420342475176 119.33516192138195 M425.1618037164211 122.42719536423684 C420.86741263872386 160.51138508953153, 422.0611353636384 205.76003404334188, 424.5462922036648 249.8709631025791 M424.8885300666094 118.4348453015089 C426.70993111115695 151.4578010942787, 427.8394415138364 185.19789250716568, 423.7300886183977 249.3076986759901 M427.5344773232937 249.3548727095127 C383.2326737046242 252.763766446352, 337.73174288868904 252.27458168530464, 266.74991673827174 253.03087311387063 M426.115524867177 251.10086350142956 C381.2016792625189 253.01794649112225, 337.64350077211856 252.7876563643217, 263.6695864707232 250.40852827727795 M265.6110022485256 252.48953858017921 C262.46862463039156 223.68138061128556, 262.51182245296235 195.92713499590755, 264.606416028738 122.90812321305275 M264.26193189918996 251.5147057980299 C266.14587988036874 208.3225024972111, 268.03649257797 168.59958325400947, 265.3555473357439 121.02544369399547" stroke="#1e1e1e" stroke-width="1.8" fill="none"></path></g><text x="345" y="157" text-anchor="middle" font-size="24" font-weight="700" fill="#1e1e1e">Ingest</text><text x="345" y="189" text-anchor="middle" font-size="15" font-weight="500" fill="#6b6b6b">Go · Python</text><text x="345" y="213" text-anchor="middle" font-size="15" font-weight="500" fill="#6b6b6b">500k+ records / day</text><g><path d="M430.4648606538773 185.88862330913543 C440.94384733363984 186.7438532794714, 447.36826858371495 187.17033414494992, 472.20994198322296 187.70947215557098 M428.48540395498276 184.3343109726906 C442.358368075639 184.00598577415943, 453.595919598639 185.94693845665455, 474.6560456633568 183.58021589517594" stroke="#1e1e1e" stroke-width="1.8" fill="none"></path></g><g><path d="M474.3612137824297 185.35049166381359 L458.8274072548486 186.79885219591617 L459.877913751278 179.02137732845785" stroke="none" stroke-width="0" fill="#1e1e1e" fill-rule="evenodd"></path><path d="M475.32634788781405 186.4588926717639 C473.56075177118294 184.32798310353638, 471.7137634929821 185.30143174525136, 460.38948059019816 188.0408228545165 M474.4542447529733 185.488470775038 C472.97685010009513 186.33338922922198, 469.63406408932826 186.4404245440582, 462.65340086710825 189.09650958034157 M462.0167576694835 191.14940195653648 C461.5108710466682 189.05243981546417, 461.89560899627816 184.6687471535622, 462.8829731894227 179.5530940461949 M461.83729506981103 190.12087175204826 C461.19526594549467 187.40714140845586, 461.2764590706334 185.12923050387448, 461.17257382182476 180.63726598698477 M463.50378010687604 182.41622839820624 C466.78363471900184 180.47653594758532, 471.7058218433337 184.83716300572516, 473.11107535630464 186.15852418154478 M461.4623289133347 179.36566496667504 C465.31491295332347 182.12470806987943, 468.32224528028325 182.557562798612, 475.1463131628931 184.96268601074814" stroke="#1e1e1e" stroke-width="1.2" fill="none"></path></g><g><path d="M478.1751761853695 135.72964397072792 L632.244111007452 134.8824407160282 L632.8958033978939 252.72581973671913 L475.44451116919515 247.79864822030066" stroke="none" stroke-width="0" fill="#a5d8ff"></path><path d="M476.3810758173466 131.1107791364193 C503.8556587934494 137.36166815066338, 542.2620349824429 136.29476923251153, 632.3124274790287 136.58684019446372 M475.90675494372846 134.36788871586322 C519.3713382273912 131.39649264061453, 559.5416557639837 130.6226834937334, 634.970057079196 135.02526986896993 M633.1363395273686 131.64532560706138 C636.2886851943255 165.1340273998678, 634.0115564025164 197.76349457353354, 634.2438203394413 247.65160517096518 M634.8142167776823 132.45807550251484 C635.4845858564378 159.4859734721482, 637.3671031942368 185.57576414197683, 633.9501476973295 250.97949779331685 M632.8241288721562 248.92478784918785 C576.0544561743736 252.21694407725334, 515.1529048144818 253.53496947550775, 477.9165278971195 252.91812185645102 M634.7258747786284 249.70143916904925 C572.6694654375315 252.89657748520372, 509.6725012868643 253.5794272738695, 474.91597745120526 248.54754712879657 M478.1516704142094 249.8825643002987 C478.5146937276602 213.03549005761744, 474.32002343194483 169.41160307079554, 474.34402671456337 136.71353868842124 M474.83655316531656 251.4578429967165 C475.9601966659069 205.44055842086675, 474.8445511619091 159.87208060771226, 473.45924555957316 134.64240615665912" stroke="#1e1e1e" stroke-width="1.8" fill="none"></path></g><g><path d="M512.7132352574371 121.36382258545174 C521.1161000917672 120.34128930196985, 536.0166046831591 121.11642684668752, 547.5893900218446 121.16320929667184 C559.16217536053 121.20999174665616, 571.7104297949321 120.88431636970301, 582.1499472895498 121.64451728535765 C592.5894647841675 122.40471820101229, 602.7347086850901 124.424189032279, 610.2264949895505 125.7244147905997 C617.7182812940108 127.02464054892039, 624.5924414902692 127.3461510880962, 627.1006651163117 129.44587183528182 C629.6088887423542 131.54559258246744, 628.0615637561036 135.93154884342525, 625.2758367458057 138.3227392737134 C622.4901097355078 140.71392970400157, 617.4910962569095 142.4949178399298, 610.386303054524 143.7930144170108 C603.2815098521385 145.0911109940918, 593.6040640776165 145.60979945094113, 582.6470775314928 146.1113187361994 C571.690090985369 146.61283802145766, 556.2082746459939 146.85329943636924, 544.6443837777814 146.80213012856035 C533.0804929095689 146.75096082075146, 522.1537564995702 146.92760570951202, 513.2637323222174 145.80430288934605 C504.3737081448645 144.68100006918007, 496.44824151860763 142.1705667991538, 491.30423871366406 140.06231320756453 C486.1602359087205 137.95405961597527, 482.80998693893156 135.3004836130459, 482.3997154925561 133.15478133981057 C481.9894440461806 131.00907906657523, 483.3094166607687 129.02078340230057, 488.8426100354111 127.18809956815242 C494.3758034100535 125.3554157340043, 509.8962784547911 123.13411181566649, 515.5988757404103 122.15867833492177 C521.3014730260295 121.18324485417706, 522.391442078268 121.09605823537466, 523.0581937491263 121.33549868368414 M538.9392157208432 122.73560117075343 C548.9299020339798 122.33906423670221, 560.7848222208521 120.34499393099186, 571.7747282888932 120.15083277482128 C582.7646343569344 119.9566716186507, 596.2904823697975 120.46199352106768, 604.8786521290901 121.57063423372993 C613.4668218883828 122.67927494639218, 619.3897961763333 124.40023734414737, 623.3037468446496 126.80267705079478 C627.2176975129659 129.2051167574422, 629.3609043596826 133.57857572625613, 628.3623561389879 135.9852724736144 C627.3638079182932 138.39196922097267, 623.9364527336539 139.77362316863957, 617.3124575204814 141.2428575349444 C610.6884623073089 142.7120919012492, 599.2484240127442 144.0276790111228, 588.618384859953 144.80067867144336 C577.9883457071619 145.57367833176392, 564.8780677517603 145.96325646068928, 553.5322226037342 145.88085549686772 C542.1863774557081 145.79845453304617, 530.096852449704 145.02643797659965, 520.5433139717966 144.306272888514 C510.98977549388917 143.58610780042835, 502.3696909216 143.19758002735358, 496.2109917362899 141.55986496835388 C490.05229255097976 139.92214990935418, 484.9148767559442 136.3382788950941, 483.5911188599358 134.4799825345157 C482.26736096392744 132.6216861739373, 484.94799543892157 131.78101982381602, 488.26844436023964 130.4100868048835 C491.5888932815577 129.03915378595096, 495.3720185526468 128.20397115780517, 503.51381238784427 126.25438442092047 C511.65560622304173 124.30479768403579, 531.139605846374 119.40804087924076, 537.1192073714245 118.71256638357536 C543.098808896475 118.01709188790997, 538.7396437723285 121.41789594905691, 539.3914215381473 122.08153744692811" stroke="none" stroke-width="0" fill="#a5d8ff"></path><path d="M587.4421674086998 121.61212153777731 C597.5970408902457 122.42035655826251, 607.64244086422 124.19773381307684, 614.3534558953152 126.03857334882196 C621.0644709264103 127.87941288456707, 626.0389978429365 130.32246132315373, 627.7082575952709 132.65715875224805 C629.3775173476052 134.99185618134237, 628.3032306075082 138.04277185110558, 624.3690144093216 140.04675792338784 C620.434798211135 142.0507439956701, 612.623442372223 143.38563821194452, 604.102960406151 144.68107518594167 C595.5824784400791 145.9765121599388, 584.0076749137354 147.27585769437044, 573.2461226128893 147.81937976737063 C562.4845703120432 148.36290184037082, 550.4196600385712 148.5343420034387, 539.5336466010743 147.9422076239428 C528.6476331635774 147.35007324444692, 516.6139140733694 145.8398005836098, 507.93004198790777 144.2665734903953 C499.2461699024461 142.69334639718082, 492.00938570859194 140.6053232239306, 487.43041408830453 138.50284506465587 C482.8514424680171 136.40036690538113, 479.4238705972639 133.82280259256544, 480.4562122661832 131.65170453474695 C481.48855393510246 129.48060647692847, 487.21081851236966 127.03271655900286, 493.62446410182014 125.47625671774492 C500.0381096912706 123.91979687648697, 509.0993697174562 123.20916186530849, 518.9380858028861 122.31294548719929 C528.7768018883161 121.41672910909008, 538.7896985782019 119.87702672378711, 552.6567606143996 120.09895844908968 C566.5238226505973 120.32089017439225, 592.12340094679 122.87118344999885, 602.1404580200724 123.64453583901467 C612.1575150933548 124.41788822803048, 613.7198782383946 124.48791828836836, 612.7591030540943 124.73907278318454 M564.6783917318188 120.35879573941448 C575.7454326397593 120.34329661579062, 589.0187228657488 119.50834722482577, 598.3716007679552 121.03712456180577 C607.7244786701616 122.56590189878577, 615.5333756420723 127.29157497436721, 620.795659145057 129.53145976129446 C626.0579426480417 131.7713445482217, 630.3396925440787 133.07582990831855, 629.9453017858634 134.47643328336926 C629.5509110276481 135.87703665841997, 624.1264504851671 135.8302828906952, 618.4293145957649 137.9350800115987 C612.7321787063628 140.0398771325022, 604.8052744499912 145.22305428041344, 595.7624864494504 147.10521600879025 C586.7196984489096 148.98737773716707, 575.1966457678219 149.34181899788672, 564.1725865925206 149.22805038185956 C553.1485274172193 149.1142817658324, 540.2646453192841 147.16286146278284, 529.6181313976423 146.42260431262724 C518.9716174760005 145.68234716247164, 508.127287573914 146.501215960448, 500.29350306266934 144.78650748092593 C492.4597185514247 143.07179900140386, 485.2123459717001 138.6017698897201, 482.6154243301746 136.1343534354949 C480.01850268864916 133.66693698126969, 481.9868750277007 131.7676408321227, 484.7119732135166 129.98200875557478 C487.4370713993325 128.19637667902686, 492.0488427128453 127.25941698888928, 498.9660134450701 125.42056097620726 C505.8831841772948 123.58170496352523, 515.240513973918 119.92843417843213, 526.214997606865 118.94887267948256 C537.189481239812 117.969311180533, 558.3998658223068 119.18896980947763, 564.8129152427517 119.54319198250987 C571.2259646631967 119.89741415554211, 565.5367647374612 120.70911274606055, 564.6932941295349 121.07420571767602" stroke="#1e1e1e" stroke-width="1.8" fill="none"></path></g><g><path d="M475 236 C473.5220302939415 244.50152387491346, 541.8618769685427 255.70944002510262, 591.8074806571007 247.62315455978526 M472.5758488059044 237.3977098107338 C472.0586608725786 247.15618526748298, 538.4619576929013 251.48608553708746, 595.0578150206804 249.47321891790045 M595 248.12435565298213 C619.2769892831325 243.42308583570156, 633.3756832480431 240.00778454527816, 632.6620502829552 238.4292085289955 M597.6257187247277 248.59291698043955 C622.9219096757649 249.13535859835778, 633.2142094260454 239.42492289707621, 635.3724133521318 239.6449207562208" stroke="#1e1e1e" stroke-width="1.8" fill="none"></path></g><text x="555" y="177" text-anchor="middle" font-size="24" font-weight="700" fill="#1e1e1e">Raw</text><text x="555" y="207" text-anchor="middle" font-size="15" font-weight="500" fill="#6b6b6b">Databricks · BigQuery</text><g><path d="M637.2972909808159 184.73293496370314 C642.1157710004597 185.5117799192071, 653.6524028755724 182.95150121742486, 677.4149129748345 187.4642082333565 M635.1281059324741 186.40146645903587 C646.6375521134585 183.80497866123915, 660.5938793979585 183.51640768498183, 680.2840684950352 185.2703238427639" stroke="#1e1e1e" stroke-width="1.8" fill="none"></path></g><g><path d="M677.3191770941019 186.99750939309598 L666.2202174445725 189.3395203615999 L668.6709394713976 180.9659132156992" stroke="none" stroke-width="0" fill="#1e1e1e" fill-rule="evenodd"></path><path d="M681.609049116671 185.6499108299613 C675.8128679706343 187.99910619534558, 673.0604120583909 186.88225366276401, 665.5329602843262 187.86913810896635 M680.6041361372173 184.6954796154797 C676.4187239112943 186.95664662299126, 673.7716874860481 187.8724801650266, 665.8530168492831 190.27958514365315 M666.0469082963465 188.8597078649371 C668.2911440047018 185.01464334776813, 667.0139403678149 181.16987839047812, 667.7381411309275 181.55490336538674 M666.8017117713893 190.1319950273968 C667.2048659939699 186.41019062460435, 667.6466200749333 182.33162867182824, 666.2779443146277 179.90552030809351 M665.2065361910797 182.11516899597885 C671.2432153195441 180.28157138438578, 672.4726836826806 181.012817495546, 678.9277031674981 186.07959830135107 M667.7295738513507 180.62606793400883 C672.062698939355 181.7952523289698, 676.26275011477 183.43352729123353, 681.0187868492305 185.8999992068112" stroke="#1e1e1e" stroke-width="1.2" fill="none"></path></g><g><path d="M688.1652466595173 122.42150155901909 L843.7017554104328 121.2354170024395 L844.6141247570515 247.41614763140677 L683.0623156368732 252.03810750842095" stroke="none" stroke-width="0" fill="#b2f2bb"></path><path d="M681.8135061442852 122.35509079098702 C716.4379223108292 121.99273541092872, 747.16684897542 124.33907692551612, 842.5173984706402 122.34157627224923 M684.3494569212198 119.23504420220851 C731.7598735183477 122.72948969686031, 777.7583180695772 122.92615689122677, 845.5980799108744 119.51537781655789 M847.5108753383159 119.26345584988594 C845.2559628236891 149.45989854224027, 845.9079825151563 177.1734127677977, 843.9413484752179 251.83224723935126 M844.7399034887552 118.48130570352077 C842.0991725926995 171.66820255331695, 841.5346968656182 222.26174918338657, 844.1702067762614 249.45129691064358 M844.5137804210186 248.494702988863 C794.4762386441231 251.67012170815468, 750.1740667402744 248.39535726571083, 682.6831390559673 252.80537059903145 M846.5362246900797 251.50201483666896 C796.1372516125441 245.60720847928525, 745.70150180161 247.20319818341733, 686.1623684316874 249.8865659803152 M684.2923385798931 247.27559002041818 C682.7841241375804 212.45655475966632, 687.1515857235789 175.8299816571176, 684.0816374003887 122.51895416378974 M685.4111744314432 251.4009801954031 C685.924386387527 214.48583916015923, 685.00248268193 181.3990275926888, 684.7629437834024 120.25936861932277" stroke="#1e1e1e" stroke-width="1.8" fill="none"></path></g><text x="765" y="167" text-anchor="middle" font-size="24" font-weight="700" fill="#1e1e1e">Transform</text><text x="765" y="199" text-anchor="middle" font-size="15" font-weight="500" fill="#6b6b6b">dbt</text><text x="765" y="221" text-anchor="middle" font-size="15" font-weight="500" fill="#6b6b6b">PySpark</text><g><path d="M847.7297213077545 183.57724661827086 C864.6966858416796 184.72069840288162, 879.9545195162297 185.57366013383867, 917.619883966446 187.21894431114197 M848.5708079099655 185.26862194538117 C871.820519849658 185.87910560846328, 892.999406594038 186.5610109734535, 920.9120913267136 183.76043179035187" stroke="#1e1e1e" stroke-width="1.8" fill="none"></path></g><g><path d="M921.6771404057741 182.24452712237834 L908.6130276342965 191.88018852728368 L906.063965191517 182.91044910294056" stroke="none" stroke-width="0" fill="#1e1e1e" fill-rule="evenodd"></path><path d="M918.4117503455282 184.8409289881587 C917.5449841700857 187.19022928715475, 913.8870606237997 188.46307558027664, 905.6764399784543 187.6974533634162 M919.5140275214612 183.9024884559214 C916.8860826885996 186.99052880500363, 912.694795848874 186.47516057423803, 906.2926328314579 189.22266070696472 M908.1415594074074 189.63451425753573 C906.5778864107496 185.9566601668938, 906.7032416715641 184.56613571683948, 907.5933090724324 180.49221220038055 M906.7661284729675 190.14311830274536 C906.2531857325582 185.7963024012776, 907.0555007693465 183.36465244502952, 906.3833148074306 180.70602487130128 M906.3892922752834 181.81410959375143 C913.5484502921809 181.04426322249813, 918.1963392323222 183.58378478799054, 919.7443309786916 186.00067242115736 M906.7568187893665 179.64647090134264 C911.179345587186 182.74814018674834, 913.9409762728558 182.39417898123133, 919.651260535568 184.59731240287422" stroke="#1e1e1e" stroke-width="1.2" fill="none"></path></g><g><path d="M923.1553171336651 137.11335914731026 L1100.1593998134135 135.5883932888508 L1101.332446116209 248.50647552609445 L922.0801201045513 249.8775667965412" stroke="none" stroke-width="0" fill="#ffd8a8"></path><path d="M918.6459364712239 135.19940244555474 C958.0282778851688 134.96469533073903, 991.4878470823169 134.3242772780657, 1097.7223694622517 136.0963123500347 M920.9921588987112 135.3021996885538 C978.7818141378463 134.9597074072361, 1037.0417910322547 136.12685094285013, 1101.2261027425527 135.20548576414586 M1100.4854111492634 134.8815860927105 C1100.0002733497859 178.681249319762, 1097.1814415245294 218.37429023236038, 1098.6388766109944 249.61288930773736 M1099.665590199828 132.5045359045267 C1099.5154545415878 174.5947522498667, 1099.703985749626 215.6363754555583, 1099.390265855193 251.12309602797032 M1101.203431969881 248.06461812853814 C1060.087563420087 251.1382265723944, 1021.7743132784963 249.67067228925228, 918.8497502148151 252.69261934161187 M1100.146574601531 250.10259050428868 C1056.762388446182 248.3728315191269, 1017.4452036336064 247.68196113872528, 919.2087594121695 251.22558483183383 M921.8330067455769 251.06861574053764 C918.3290087097884 226.02388210371137, 918.4586021775008 197.74088552743194, 918.8192480862141 136.32436963915825 M920.9857956975699 251.3441173940897 C917.7296339986324 210.91300515756012, 920.2014720914364 171.2897450938821, 921.0666420072317 133.87633108198642" stroke="#1e1e1e" stroke-width="1.8" fill="none"></path></g><g><path d="M957.8403674740634 122.631618949574 C966.5803307960424 120.93333890830995, 980.9816381052564 119.44804662761848, 993.4256840406283 118.86052610120495 C1005.8697299760003 118.27300557479143, 1020.3314112542166 118.32915341232822, 1032.5046430862953 119.10649579109281 C1044.677874918374 119.8838381698574, 1057.2197169196027 122.06455992312571, 1066.465075033101 123.52458037379249 C1075.7104331465991 124.98460082445926, 1083.8108874734316 125.88596854306722, 1087.976791767285 127.86661849509346 C1092.1426960611384 129.8472684471197, 1093.1768135855866 133.08536293535113, 1091.460500796221 135.40848008594992 C1089.7441880068552 137.7315972365487, 1085.2242245478008 139.83924810711042, 1077.6789150310908 141.80532139868615 C1070.1336055143809 143.77139469026187, 1057.86736060297 146.2498312455077, 1046.188643695961 147.2049198354042 C1034.509926788952 148.16000842530073, 1020.1262993480311 147.65449810911338, 1007.6066135890367 147.53585293806532 C995.0869278300422 147.41720776701726, 982.462045453206 147.1878999321296, 971.0705291419945 146.49304880911578 C959.679012830783 145.79819768610196, 946.5315529931264 145.26612509104584, 939.257515721768 143.36674619998243 C931.9834784504095 141.46736730891902, 928.4120694667345 137.42888508850697, 927.4263055138437 135.09677546273537 C926.4405415609529 132.76466583696376, 922.7986558780774 131.71293863463148, 933.342932004423 129.37408844535284 C943.8872081307686 127.03523825607421, 975.2642838346153 122.5679031184051, 990.6919622719174 121.06367432706357 C1006.1196407092195 119.55944553572203, 1025.5619203604595 120.24311530986334, 1025.9090026282358 120.34871569730366 M971.642207254862 121.35632892021006 C981.7104216239799 120.22260936290742, 996.6244513669045 121.34654340078869, 1009.4158470951412 120.95815192083214 C1022.2072428233779 120.56976044087558, 1036.702845271112 118.07219133342213, 1048.3905816242823 119.02598004047074 C1060.0783179774526 119.97976874751936, 1072.2035478014438 124.82941021858012, 1079.5422652141624 126.68088416312382 C1086.880982626881 128.53235810766753, 1091.1580202781026 128.42997503348226, 1092.4228861005936 130.13482370773295 C1093.6877519230845 131.83967238198363, 1091.891822838424 134.77309165968484, 1087.1314601491079 136.90997620862797 C1082.3710974597916 139.0468607575711, 1073.6735864297752 140.74317557832916, 1063.8607099646968 142.95613100139164 C1054.0478334996183 145.16908642445412, 1040.7917694394612 149.35415183322039, 1028.2542013586371 150.18770874700292 C1015.7166332778132 151.02126566078545, 1000.8473421414648 148.85567409074423, 988.6353014797531 147.95747248408682 C976.4232608180415 147.0592708774294, 964.6759812176476 146.12538450161583, 954.9819573883675 144.79849910705838 C945.2879335590874 143.47161371250093, 934.6898665675778 142.29744274839936, 930.4711585040725 139.99616011674212 C926.2524504405671 137.69487748508487, 927.7163171525318 133.01506141910744, 929.6697090073355 130.99080331711497 C931.6231008621393 128.9665452151225, 935.1883179635262 129.33510287692891, 942.1915096328946 127.85061150478725 C949.1947013022631 126.36612013264558, 966.5175955290792 123.0354788491322, 971.6888590235465 122.08385508426494 C976.8601225180137 121.13223131939768, 972.4497367885971 121.85588541558869, 973.2190905996981 122.14086891558365" stroke="none" stroke-width="0" fill="#ffd8a8"></path><path d="M1001.3518749801829 118.40629567243559 C1013.4389294366082 117.66253870042718, 1027.734266470147 119.4081193480893, 1039.6803453781874 120.20581594581105 C1051.6264242862278 121.0035125435328, 1064.7413352579463 121.19938404153257, 1073.0283484284255 123.19247525876608 C1081.3153615989047 125.1855664759996, 1086.5033184300353 129.77141241701094, 1089.402424401063 132.16436324921216 C1092.3015303720906 134.55731408141338, 1093.3684364304545 135.6636522653144, 1090.422984254592 137.55018025197347 C1087.4775320787294 139.43670823863255, 1080.2637772329963 142.02223189383878, 1071.729711345888 143.4835311691666 C1063.1956454587798 144.94483044449444, 1051.1212866052094 145.24869648171133, 1039.2185889319433 146.3179759039404 C1027.315891258677 147.38725532616948, 1013.1005050515025 149.76544498166362, 1000.3135253062916 149.8992077025411 C987.5265455610806 150.0329704234186, 973.1670223722543 148.5513018442363, 962.496710460678 147.12055222920523 C951.8263985491016 145.68980261417417, 942.1790356953085 143.52277212210188, 936.2916538368332 141.3147100123548 C930.404271978358 139.1066479026077, 927.2137510693724 136.40521392352525, 927.1724193098264 133.8721795707227 C927.1310875502804 131.33914521792013, 930.2048468922293 127.97865332256433, 936.0436632795571 126.11650389553938 C941.8824796668849 124.25435446851444, 951.1110973032095 123.62846684316439, 962.2053176337935 122.69928300857298 C973.2995379643775 121.77009917398156, 995.0512452708438 121.27326979485136, 1002.6089852630611 120.5414008879909 C1010.1667252552784 119.80953198113045, 1007.4419239514339 118.23220523480927, 1007.5517575870977 118.30806956741029 M989.8644034840094 119.93646469875397 C1001.5446833335817 118.97839859798195, 1017.2876764639689 118.87896869224596, 1030.0634703801652 119.41174839077416 C1042.8392642963615 119.94452808930237, 1056.721068150169 121.1497673639987, 1066.5191669811875 123.13314288992322 C1076.317265812206 125.11651841584774, 1084.9268740064974 129.3900359805059, 1088.8520633662763 131.31200154632126 C1092.7772527260552 133.2339671121366, 1091.8567850563195 132.967875769462, 1090.0703031398602 134.6649362848154 C1088.283821223401 136.3619968001688, 1085.515728334535 139.80070470111687, 1078.1331718675208 141.49436463844157 C1070.7506154005066 143.18802457576626, 1057.3065608895863 143.48823850466474, 1045.774964337775 144.82689590876362 C1034.2433677859635 146.1655533128625, 1021.5670720452051 148.84684243032603, 1008.9435925566519 149.52630906303483 C996.3201130680986 150.20577569574363, 981.4110883227215 150.16293059908568, 970.0340874064558 148.90369570501636 C958.6570864901901 147.64446081094704, 947.5907147084943 144.50163500413987, 940.6815870590576 141.97089969861887 C933.772459409621 139.44016439309786, 930.0293566382817 136.04012220670512, 928.5793215098363 133.7192838718904 C927.1292863813909 131.3984455370757, 927.3047696508704 129.83510686884242, 931.9813762883855 128.04586968973064 C936.6579829259006 126.25663251061886, 946.4811965425356 124.67209477244242, 956.6389613349268 122.98386079721978 C966.7967261273179 121.29562682199713, 987.264100176087 118.65277001730637, 992.9279650427328 117.91646583839476 C998.5918299093786 117.18016165948315, 990.2629676751174 117.7988140447728, 990.6221505348014 118.56603572375015" stroke="#1e1e1e" stroke-width="1.8" fill="none"></path></g><g><path d="M920 236 C918.8620535969734 248.1663845287907, 992.8838336110115 254.44519530178263, 1051.8132350087167 250.1914614111723 M921.6188094258308 233.54979428052903 C916.4945538514853 249.14617006949067, 994.9916687387228 256.15464505375576, 1052.8376727288962 249.94465219860686 M1055 248.12435565298213 C1081.0209255449115 245.17661607576045, 1103.033901131153 239.2432201503273, 1097.8328581929206 233.8978304743767 M1053.737810051441 248.95334877079142 C1082.7927077780305 244.47679096353684, 1101.9359089845418 239.34431108043154, 1096.6958082383871 237.91947518408298" stroke="#1e1e1e" stroke-width="1.8" fill="none"></path></g><text x="1010" y="185" text-anchor="middle" font-size="24" font-weight="700" fill="#1e1e1e">Warehouse</text><text x="1010" y="215" text-anchor="middle" font-size="15" font-weight="500" fill="#6b6b6b">BigQuery · Databricks</text><g><path d="M1009.5621516346931 252.42155827283858 C1006.84738353616 263.3321272794157, 1013.188206518948 278.6230551727116, 1007.8248549580574 311.97368038892745 M1010.2135098874569 254.13577743172647 C1011.7236360401512 274.0273179706186, 1009.6340015262962 290.9151048474014, 1011.5401141583919 310.45053973793983" stroke="#1e1e1e" stroke-width="1.6" fill="none"></path></g><g><path d="M1009.6351037174463 308.89154485166074 L1002.9732525084638 295.0768779954053 L1017.8009696091985 295.08757030573855" stroke="none" stroke-width="0" fill="#1e1e1e" fill-rule="evenodd"></path><path d="M1009.6944515743852 309.0319471463561 C1011.2773927048639 307.84310834296514, 1008.3915094207555 303.4282261691365, 1004.1873343570256 299.06178992030397 M1010.6639189057053 310.3494972963631 C1007.6666944921689 305.2297052442221, 1006.5529621428301 302.6553381388667, 1005.0996634980762 297.4617575727142 M1005.5391247187137 297.46534195257226 C1009.0363225280668 296.4793591023509, 1010.1117131527344 297.09055162568416, 1015.3924557114992 296.062106350931 M1005.097959858989 297.2102628805318 C1008.1818129486319 296.6535491986538, 1010.8610972703428 297.3852195680317, 1014.4326639977955 296.60686450796663 M1015.5160270570493 298.14563550708067 C1011.4912529421138 299.73928064639017, 1011.9567487676928 305.44681847441433, 1010.560958789885 310.9217465409636 M1013.7280424249446 297.53945918423307 C1014.5779467943519 300.05591930403835, 1011.905995135057 301.81269649939816, 1010.5237342219054 310.5346255989373" stroke="#1e1e1e" stroke-width="1.2" fill="none"></path></g><g><path d="M767.827314919993 311.3205509798603 C834.4348089318595 311.60091794302656, 903.6092634110416 311.8192374832802, 1100.7352868015057 311.30669947659777 M769.8798676295504 309.76260202939056 C849.9988612875262 312.7693784916596, 928.670675376639 312.97094958251756, 1098.973097033452 308.9566617624138" stroke="#1e1e1e" stroke-width="1.8" fill="none"></path></g><g><path d="M770.4783667981625 312.04371410012243 C767.7100411448896 327.74929612409323, 770.2049464259566 336.75327292345463, 767.9273404538632 376.8510484278202 M769.4348608762026 312.1693551748991 C768.7864363117516 334.7797145949677, 770.6478383465111 355.6859449867159, 768.6541255742311 374.6955937117338" stroke="#1e1e1e" stroke-width="1.8" fill="none"></path></g><g><path d="M771.8140853732824 377.91505371630194 L767.3696576033259 361.3472120782472 L773.2974824692583 361.05983824935925" stroke="none" stroke-width="0" fill="#1e1e1e" fill-rule="evenodd"></path><path d="M770.3358021888137 375.8674562254548 C767.1947744426665 372.4328842486973, 766.09653350596 371.45204480051086, 764.2590742040896 363.97594754752885 M770.1188645978272 376.073001716584 C768.1271843751941 370.2393058830251, 767.4744452157225 367.8267547058365, 765.3194714891637 361.93329535437 M765.0542000321451 361.3204949067726 C768.0226130389572 361.65088874169743, 771.0923401193658 361.71775804134074, 773.7877894401527 360.5307607684279 M765.8462933308277 362.2158245182061 C767.3925447852257 361.17346902184636, 769.1408216138893 361.0427135777415, 774.4853492441971 361.240991668521 M773.8674050991511 360.755105805967 C774.4594060093294 366.4765240360261, 771.6150723499021 370.0072695534597, 768.7292726954818 375.8822836008668 M774.3616648939526 360.92966066789995 C772.722567769216 367.77235168146115, 770.2271947053413 370.8221389981334, 769.8399710650742 376.00328219696877" stroke="#1e1e1e" stroke-width="1.2" fill="none"></path></g><g><path d="M1097.7364743798971 310.1547920137644 C1099.5519884696573 327.45608231155205, 1100.1239348998638 338.9147853290662, 1101.178583201766 376.7897324472666 M1099.0455363705755 312.6861440464854 C1100.502474325922 327.4151561674662, 1099.5393946349889 344.2898515770212, 1098.8111312821507 375.9181206986308" stroke="#1e1e1e" stroke-width="1.8" fill="none"></path></g><g><path d="M1102.9035762012004 373.52680814862254 L1093.167860150757 358.7823791196681 L1104.245738899288 361.54597222116956" stroke="none" stroke-width="0" fill="#1e1e1e" fill-rule="evenodd"></path><path d="M1098.416477496028 374.5452107650042 C1097.9828405233245 372.22777220156337, 1100.0184207603193 368.48395411619816, 1096.5349441276217 363.9330263611413 M1099.8463374438882 374.1947539266944 C1099.956257517363 372.57241835457995, 1097.7728431534808 370.436344810575, 1095.4293754847074 362.7890642451979 M1096.3439879309599 362.28032162597174 C1098.4734146957144 361.7366535613707, 1101.965716163206 363.063611491268, 1104.5177065465782 361.7973382192754 M1094.688209824648 361.4524802159937 C1098.9132235061463 361.6995540544922, 1101.3451842698607 361.9037108246954, 1105.277816988447 361.82418036984774 M1103.0430941202019 361.7998409554101 C1103.224654342281 364.18071539994423, 1102.726577739695 370.178634431183, 1097.8134296482801 375.86255213081836 M1104.6784761284564 361.2447614097334 C1103.8725346579597 364.47394356586585, 1102.423107293107 368.8990966049939, 1099.4980894866585 375.11761049598454" stroke="#1e1e1e" stroke-width="1.2" fill="none"></path></g><g><path d="M693.1404228448868 380.951145529747 L849.1458664178848 378.9178577184677 L850.7099281549454 506.9419673681259 L691.7068268060684 513.0367557287216" stroke="none" stroke-width="0" fill="#fcc2d7"></path><path d="M691.3945819616317 382.66586992740633 C721.4935811042785 384.9704035615921, 752.2288839578629 379.8498461580277, 848.0298259496689 381.72841646671293 M688.6562118649483 381.2029329180717 C747.531211745739 378.1419823374748, 804.8999738335609 377.5648403849602, 848.9681369900703 378.9406476855278 M847.4472148656845 380.1087814569473 C851.8056505548954 421.64554035812614, 850.1805414545536 459.8401361733675, 851.3851688146591 512.6838524103165 M851.1541202664375 378.5393812060356 C852.3277244446277 406.6312043771148, 853.6457660553455 434.39157002866267, 849.7203544735909 508.8307947039604 M850.5379092931747 510.61949083805087 C807.7306948184967 507.10306578540803, 760.1269715547562 511.5463267412186, 687.3996669530868 512.5234924554825 M849.662099468708 509.6034540057182 C801.2067170500756 513.687785964489, 751.7740030884743 512.7666254572869, 689.4783458828927 510.0341131091118 M689.2440089941025 510.35815432071684 C691.8104985215664 479.52552244514226, 691.9832898118495 452.9085399836302, 691.6256641149521 382.032492852211 M688.6477275967598 511.2588231921196 C687.4475195214748 478.0900099888444, 688.60997031188 445.9983330160379, 689.8221893429757 379.3017747759819" stroke="#1e1e1e" stroke-width="1.8" fill="none"></path></g><text x="770" y="427" text-anchor="middle" font-size="24" font-weight="700" fill="#1e1e1e">Analytics</text><text x="770" y="459" text-anchor="middle" font-size="15" font-weight="500" fill="#6b6b6b">Superset</text><text x="770" y="481" text-anchor="middle" font-size="15" font-weight="500" fill="#6b6b6b">dashboards</text><g><path d="M1023.1354580819607 378.09707432389257 L1183.0746886193751 382.2943458616734 L1178.369088834524 510.68713131546974 L1017.3157290399074 511.95648537278174" stroke="none" stroke-width="0" fill="#d0bfff"></path><path d="M1022.3107971251011 378.88802575469015 C1052.7847128629685 384.28593719172477, 1086.0812909543515 384.07200000452997, 1178.1323114454747 381.6057845056057 M1021.077562853694 379.0365106612444 C1080.3254793912172 384.39248086559775, 1140.6083049863578 384.30057708370686, 1179.2821484059095 381.3857016593218 M1182.8344827711583 377.7178465783596 C1184.2147881011367 418.88266872130333, 1180.854253242433 452.69348085448144, 1178.0339328825473 511.5741734445095 M1179.516963621974 378.5509963065386 C1180.5190348150136 416.58380474187436, 1179.013579893291 456.6575341977179, 1179.8303840130568 511.2666942626238 M1178.182735067606 507.20444840788844 C1141.9415860533713 510.0296546008587, 1102.6375525176525 505.7765206363201, 1021.1829725325108 512.4671168267727 M1180.5672744244337 510.50374183952806 C1136.3406101375817 508.44310146152975, 1094.7885033458472 509.5785109120608, 1018.5015413731337 510.7036225348711 M1020.5143430769443 512.2546671807766 C1024.9453733983637 471.81931598223747, 1022.9992306295038 438.0842516489327, 1018.2944694578648 381.93520058989526 M1018.9350382298231 511.2303917914629 C1017.3921461482645 472.3308441545814, 1017.0514678378702 434.59819410070776, 1020.4740384548902 379.11025600731375" stroke="#1e1e1e" stroke-width="1.8" fill="none"></path></g><text x="1100" y="427" text-anchor="middle" font-size="24" font-weight="700" fill="#1e1e1e">ML</text><text x="1100" y="459" text-anchor="middle" font-size="15" font-weight="500" fill="#6b6b6b">datatrax (Go)</text><text x="1100" y="481" text-anchor="middle" font-size="15" font-weight="500" fill="#6b6b6b">7 algorithms</text><g><path d="M203.10070474147795 417.31857588291166 L518.576444029808 420.32976286411287 L521.1832135915756 511.3032789468765 L198.5780446767807 510.7945928812027" stroke="none" stroke-width="0" fill="#fff3bf"></path><path d="M201.6269146678331 418.6302637710791 C262.10299214056715 420.8221301432039, 330.7875980681352 422.3147236113969, 519.1948452534639 420.5231211553458 M199.1789631076091 419.91009379911276 C287.51838812082246 423.00430059848617, 373.35401927888444 423.07763058715574, 521.0360976521595 419.51078498777775 M522.1453581094742 420.18130242824554 C524.1712933604717 447.124116794765, 521.4627781932354 477.02999268472195, 520.1752813577652 510.20642068386076 M520.8568671107292 418.63230201005933 C518.9671674592495 446.68596899062396, 520.0972368104458 470.9872067719698, 520.6005907893181 509.11799117326734 M520.6275231883867 509.2294522133673 C413.0574492748231 513.5954776895808, 307.3580028629686 512.8059961764262, 201.44619133524793 511.450654153591 M520.3524282331965 510.2840126315575 C396.95109039828367 509.19267752584074, 275.39608830978193 508.8646766153404, 200.8846837791629 509.29317437271277 M203.00668165683746 512.7302572011947 C196.74914717793465 477.95041213780644, 199.17046599507333 448.0633160978556, 200.57610685825347 421.254154753685 M200.94621266126632 511.031371986866 C199.66811575818062 478.5468272253871, 198.40553374218942 447.85750951468947, 198.6369822382927 420.9696246266365" stroke="#9a7d0a" stroke-width="2" fill="none" stroke-dasharray="8 5"></path></g><text x="360" y="455" text-anchor="middle" font-size="19" font-weight="700" fill="#3d3a1f">Airflow · Cloud Composer</text><text x="360" y="481" text-anchor="middle" font-size="14" font-weight="500" fill="#6b6b6b" font-style="italic">orchestrates</text><g><path d="M290 420 C288.58512234091756 363.5071850995223, 308.99860570629437 310.82938186923667, 341.8302103459835 260.2836109697819 M287.22554325461385 420.59844346642495 C290.71843813925983 366.074086877207, 304.8743163238962 311.41660412917537, 342.54425296813247 256.79502472370865" stroke="#9a7d0a" stroke-width="1.6" fill="none" stroke-dasharray="8 5"></path></g><g><path d="M430 420 C542.0034615000089 364.4234002629916, 651.8874282002449 312.11332068840665, 761.8316489338874 259.32568768262865 M433.0362834095955 418.03646458387374 C543.9107447173199 366.5715830777089, 657.8600774186849 312.5837440083424, 767.5092173951864 256.91288304388524" stroke="#9a7d0a" stroke-width="1.6" fill="none" stroke-dasharray="8 5"></path></g></svg>